<svg id="Layer_1" data-name="Layer 1" xmlns="http://www.w3.org/2000/svg" viewBox="0 0 499.78 985.31"><title>usghLogo</title><path d="M824.41,269H991V257.34C991,148.54,921.46,56,824.41,21.69Z" transform="translate(-491.22 -21.69)"/><path d="M824.41,435.59V772.94a83.29,83.29,0,0,1-83.3,83.29h0a83.29,83.29,0,0,1-83.29-83.29V435.59H491.22V757.11c0,138,111.88,249.89,249.89,249.89h0C879.12,1007,991,895.12,991,757.11V435.59Z" transform="translate(-491.22 -21.69)"/><path d="M657.82,269V21.69C560.76,56,491.22,148.54,491.22,257.34V269Z" transform="translate(-491.22 -21.69)"/></svg>